<svg width="200" viewBox="0 0 410 190" fill="none" xmlns="http://www.w3.org/2000/svg">
<path d="M215.472 74.088C214.533 75.0267 213.507 75.496 212.392 75.496C211.395 75.496 210.368 75.2027 209.312 74.616C208.256 74.0293 207.728 73.5013 207.728 73.032C207.728 72.2693 208.256 70.7147 209.312 68.368C210.368 65.9627 211.893 62.736 213.888 58.688C216.235 53.8773 217.877 50.3573 218.816 48.128C219.637 46.0747 220.781 44.1387 222.248 42.32C223.773 40.4427 225.504 39.504 227.44 39.504C228.613 39.504 229.845 39.9733 231.136 40.912C231.723 41.3227 233.248 43.2587 235.712 46.72C238.176 50.1227 239.936 52.6453 240.992 54.288C242.165 55.9893 243.163 57.8373 243.984 59.832C244.805 61.768 245.803 63.6747 246.976 65.552C247.445 66.1973 247.885 66.784 248.296 67.312C249.704 68.9547 250.408 70.3333 250.408 71.448C250.408 72.5627 249.909 73.472 248.912 74.176C247.915 74.88 246.8 75.232 245.568 75.232C244.571 75.232 243.603 74.8213 242.664 74C241.725 73.12 240.845 72.0933 240.024 70.92C239.261 69.688 238.616 68.632 238.088 67.752C236.973 65.816 235.8 63.616 234.568 61.152C233.336 58.7467 232.251 56.7227 231.312 55.08C230.432 53.4373 229.376 51.7653 228.144 50.064C227.147 50.944 225.797 52.792 224.096 55.608C222.395 58.424 221.309 60.3893 220.84 61.504C220.429 62.3253 219.725 64.1147 218.728 66.872C217.672 70.216 216.587 72.6213 215.472 74.088ZM267.909 57.896C271.664 57.896 274.421 58.6293 276.181 60.096C278 61.5627 278.909 63.5867 278.909 66.168C278.909 67.928 278.498 69.6587 277.677 71.36C276.914 73.0613 275.8 74.4693 274.333 75.584C272.925 76.6987 271.312 77.256 269.493 77.256C265.738 77.256 262.981 76.288 261.221 74.352C259.52 72.416 258.669 70.04 258.669 67.224C258.669 64.8187 259.461 62.6773 261.045 60.8C262.629 58.864 264.917 57.896 267.909 57.896ZM284.492 96.44L285.372 89.224C288.892 89.224 292.207 88.9013 295.316 88.256C298.426 87.552 301.271 86.6427 303.852 85.528C306.492 84.3547 308.751 83.0347 310.628 81.568C312.506 80.0427 313.943 78.488 314.94 76.904C315.996 75.2613 316.524 73.648 316.524 72.064C316.524 71.3013 316.26 70.5387 315.732 69.776C315.204 68.9547 314.295 68.28 313.004 67.752C311.772 67.224 310.1 66.96 307.988 66.96C306.698 66.96 305.26 67.136 303.676 67.488C302.092 67.84 300.567 68.3387 299.1 68.984C297.692 69.5707 296.519 70.2453 295.58 71.008C297.164 72.2987 298.631 73.56 299.98 74.792C301.388 76.024 302.826 77.3733 304.292 78.84C305.759 80.248 307.343 81.8613 309.044 83.68C310.394 84.6773 311.89 85.528 313.532 86.232C315.234 86.936 317.052 87.5227 318.988 87.992C320.983 88.4027 323.007 88.7253 325.06 88.96C327.114 89.136 329.167 89.224 331.22 89.224C332.452 89.224 333.332 89.576 333.86 90.28C334.447 90.9253 334.74 91.7173 334.74 92.656C334.74 93.5947 334.33 94.4747 333.508 95.296C332.687 96.0587 331.631 96.44 330.34 96.44C327.114 96.44 323.799 96.1467 320.396 95.56C317.052 94.9147 313.914 93.976 310.98 92.744C308.047 91.4533 305.554 89.84 303.5 87.904C302.503 86.6133 301.388 85.3227 300.156 84.032C298.924 82.7413 297.575 81.4507 296.108 80.16C294.7 78.8107 293.175 77.5493 291.532 76.376C291.18 76.0827 290.828 75.5547 290.476 74.792C290.124 74.0293 289.831 73.2373 289.596 72.416C289.362 71.5947 289.244 70.9787 289.244 70.568C289.244 69.688 289.802 68.632 290.916 67.4C292.031 66.168 293.527 64.9947 295.404 63.88C297.282 62.7067 299.423 61.7387 301.828 60.976C304.234 60.2133 306.727 59.832 309.308 59.832C312.652 59.832 315.351 60.3307 317.404 61.328C319.516 62.3253 321.042 63.616 321.98 65.2C322.978 66.7253 323.476 68.368 323.476 70.128C323.476 72.7093 322.831 75.2907 321.54 77.872C320.25 80.3947 318.402 82.7707 315.996 85C313.591 87.2293 310.775 89.224 307.548 90.984C304.322 92.6853 300.743 94.0347 296.812 95.032C292.94 95.9707 288.834 96.44 284.492 96.44ZM345.167 57.896C348.921 57.896 351.679 58.6293 353.439 60.096C355.257 61.5627 356.167 63.5867 356.167 66.168C356.167 67.928 355.756 69.6587 354.935 71.36C354.172 73.0613 353.057 74.4693 351.591 75.584C350.183 76.6987 348.569 77.256 346.751 77.256C342.996 77.256 340.239 76.288 338.479 74.352C336.777 72.416 335.927 70.04 335.927 67.224C335.927 64.8187 336.719 62.6773 338.303 60.8C339.887 58.864 342.175 57.896 345.167 57.896ZM372.222 74.088C371.283 75.0267 370.257 75.496 369.142 75.496C368.145 75.496 367.118 75.2027 366.062 74.616C365.006 74.0293 364.478 73.5013 364.478 73.032C364.478 72.2693 365.006 70.7147 366.062 68.368C367.118 65.9627 368.643 62.736 370.638 58.688C372.985 53.8773 374.627 50.3573 375.566 48.128C376.387 46.0747 377.531 44.1387 378.998 42.32C380.523 40.4427 382.254 39.504 384.19 39.504C385.363 39.504 386.595 39.9733 387.886 40.912C388.473 41.3227 389.998 43.2587 392.462 46.72C394.926 50.1227 396.686 52.6453 397.742 54.288C398.915 55.9893 399.913 57.8373 400.734 59.832C401.555 61.768 402.553 63.6747 403.726 65.552C404.195 66.1973 404.635 66.784 405.046 67.312C406.454 68.9547 407.158 70.3333 407.158 71.448C407.158 72.5627 406.659 73.472 405.662 74.176C404.665 74.88 403.55 75.232 402.318 75.232C401.321 75.232 400.353 74.8213 399.414 74C398.475 73.12 397.595 72.0933 396.774 70.92C396.011 69.688 395.366 68.632 394.838 67.752C393.723 65.816 392.55 63.616 391.318 61.152C390.086 58.7467 389.001 56.7227 388.062 55.08C387.182 53.4373 386.126 51.7653 384.894 50.064C383.897 50.944 382.547 52.792 380.846 55.608C379.145 58.424 378.059 60.3893 377.59 61.504C377.179 62.3253 376.475 64.1147 375.478 66.872C374.422 70.216 373.337 72.6213 372.222 74.088Z" fill="black"/>
<path d="M355.448 134.912C354.627 134.912 353.571 135.528 352.28 136.76C351.048 137.933 349.963 139.635 349.024 141.864C348.144 144.093 347.704 146.675 347.704 149.608C347.704 151.544 348.203 154.125 349.2 157.352C350.197 156.003 351.253 154.067 352.368 151.544C353.248 149.608 354.011 148.083 354.656 146.968C355.36 145.795 356.328 144.827 357.56 144.064C358.792 143.301 360.376 142.92 362.312 142.92C364.952 142.92 367.005 143.624 368.472 145.032C369.939 146.44 370.672 148.347 370.672 150.752C370.672 153.216 369.88 155.299 368.296 157C366.712 158.701 364.805 159.552 362.576 159.552C361.344 159.552 360.259 159.405 359.32 159.112C358.44 158.76 357.589 158.203 356.768 157.44C356.475 157.851 355.947 158.613 355.184 159.728C354.421 160.784 353.864 161.693 353.512 162.456C353.219 163.16 352.925 164.275 352.632 165.8C352.456 166.973 351.869 167.736 350.872 168.088C349.875 168.44 348.936 168.616 348.056 168.616C346.883 168.616 345.827 168.381 344.888 167.912C344.008 167.384 343.568 166.709 343.568 165.888C343.568 164.539 343.451 163.307 343.216 162.192C342.981 161.019 342.6 159.611 342.072 157.968C341.485 156.208 341.045 154.595 340.752 153.128C340.459 151.603 340.312 149.901 340.312 148.024C340.312 143.859 341.045 140.251 342.512 137.2C343.979 134.091 345.827 131.744 348.056 130.16C350.344 128.517 352.603 127.696 354.832 127.696C357.296 127.696 359.408 128.576 361.168 130.336C362.635 131.744 364.101 132.917 365.568 133.856C366.683 133.152 367.885 132.213 369.176 131.04C370.467 129.984 371.523 129.221 372.344 128.752C373.165 128.283 374.104 128.048 375.16 128.048C377.859 128.048 379.941 128.752 381.408 130.16C382.875 131.568 384.077 133.739 385.016 136.672C385.955 139.488 386.571 143.037 386.864 147.32C387.216 151.603 387.392 156.795 387.392 162.896C387.392 165.184 387.011 166.68 386.248 167.384C385.485 168.088 384.371 168.44 382.904 168.44C381.613 168.44 380.499 168.059 379.56 167.296C378.68 166.475 378.24 165.419 378.24 164.128C378.24 162.309 378.299 160.051 378.416 157.352L378.504 151.896C378.504 147.907 378.152 144.181 377.448 140.72C377.155 139.312 376.715 138.227 376.128 137.464C375.541 136.643 374.691 136.232 373.576 136.232C373.048 136.232 372.432 136.467 371.728 136.936C371.024 137.405 370.203 138.051 369.264 138.872C368.677 139.4 368.061 139.899 367.416 140.368C366.829 140.779 366.331 140.984 365.92 140.984C363.925 140.984 362.107 140.016 360.464 138.08C359.525 136.965 358.704 136.173 358 135.704C357.355 135.176 356.504 134.912 355.448 134.912ZM366.184 150.928C366.184 149.755 365.832 148.875 365.128 148.288C364.483 147.701 363.632 147.408 362.576 147.408C361.285 147.408 360.259 147.731 359.496 148.376C358.733 149.021 358.352 149.931 358.352 151.104C358.352 152.277 358.733 153.187 359.496 153.832C360.317 154.477 361.315 154.8 362.488 154.8C363.603 154.8 364.483 154.448 365.128 153.744C365.832 153.04 366.184 152.101 366.184 150.928Z" fill="black"/>
<path d="M46.728 41.672C44.2053 39.8533 42.0347 38.5333 40.216 37.712C38.3973 36.832 36.2853 36.392 33.88 36.392C29.0693 36.392 24.9333 37.624 21.472 40.088C18.832 42.024 16.8667 44.5467 15.576 47.656C14.2853 50.7653 13.64 54.256 13.64 58.128C13.64 61.824 14.4907 65.08 16.192 67.896C17.8933 70.6533 20.0933 72.7653 22.792 74.232C25.4907 75.6987 28.3067 76.432 31.24 76.432C34.1733 76.432 36.696 75.992 38.808 75.112C40.9787 74.1733 42.7093 72.9707 44 71.504C45.9947 68.9813 46.992 65.6373 46.992 61.472C46.992 60.8853 46.5227 60.4747 45.584 60.24C44.6453 60.0053 43.296 59.888 41.536 59.888L35.2 59.976C33.4987 59.976 32.1493 59.6533 31.152 59.008C30.1547 58.3627 29.656 57.5413 29.656 56.544C29.656 55.136 30.1253 54.1093 31.064 53.464C32.0027 52.76 33.264 52.408 34.848 52.408C36.7253 52.408 39.248 52.5253 42.416 52.76C45.584 52.9947 47.872 53.112 49.28 53.112C51.3333 53.112 52.976 53.7573 54.208 55.048C55.4987 56.3387 56.144 58.216 56.144 60.68C56.144 62.968 55.6453 65.6373 54.648 68.688C53.6507 71.7387 52.2427 74.4667 50.424 76.872C48.664 79.2187 46.0533 81.008 42.592 82.24C39.1893 83.4133 35.4053 84 31.24 84C27.7787 84 24.4347 83.4427 21.208 82.328C17.9813 81.2133 15.2827 79.6587 13.112 77.664C10.4133 75.1413 8.272 72.1493 6.688 68.688C5.16267 65.168 4.4 61.6773 4.4 58.216C4.4 53.1707 5.57333 48.272 7.92 43.52C10.3253 38.7093 13.552 34.984 17.6 32.344C19.36 31.1707 21.824 30.2027 24.992 29.44C28.16 28.6773 31.064 28.296 33.704 28.296C37.8107 28.296 41.4187 28.9413 44.528 30.232C47.6373 31.464 50.0133 33.2533 51.656 35.6C52.36 36.656 52.712 37.5947 52.712 38.416C52.712 39.3547 52.3013 40.2347 51.48 41.056C50.6587 41.8773 49.8373 42.288 49.016 42.288C48.664 42.288 48.2533 42.2293 47.784 42.112C47.3147 41.9947 46.9627 41.848 46.728 41.672ZM105.462 79.776C105.462 81.0667 104.758 82.152 103.35 83.032C102 83.912 100.739 84.352 99.5658 84.352C97.3365 84.352 95.5471 84.088 94.1978 83.56C92.9071 82.9733 91.7045 81.9173 90.5898 80.392C89.0645 81.7413 86.9818 82.768 84.3418 83.472C81.7018 84.1173 79.2671 84.44 77.0378 84.44C73.4005 84.44 70.4085 83.472 68.0618 81.536C65.7151 79.5413 64.5418 76.6373 64.5418 72.824C64.5418 71.1813 64.9818 69.6853 65.8618 68.336C66.7418 66.928 67.9445 65.696 69.4698 64.64C71.1711 63.5253 73.1071 62.6747 75.2778 62.088C77.4485 61.4427 79.7071 61.12 82.0538 61.12C83.2858 61.12 84.7525 61.3547 86.4538 61.824C88.1551 62.2933 89.4751 62.792 90.4138 63.32V61.912C90.4138 58.744 89.6511 56.5733 88.1258 55.4C86.6005 54.168 84.1365 53.552 80.7338 53.552C79.7365 53.552 78.7391 53.7573 77.7418 54.168C76.8031 54.5787 75.7178 55.136 74.4858 55.84C72.8431 56.72 71.2885 57.16 69.8218 57.16C69.2938 57.16 68.7951 56.808 68.3258 56.104C67.8565 55.3413 67.6218 54.6667 67.6218 54.08C67.6218 52.3787 68.4138 50.912 69.9978 49.68C71.6405 48.448 73.5765 47.5387 75.8058 46.952C78.0351 46.3067 80.0298 45.984 81.7898 45.984C83.5498 45.984 85.5738 46.336 87.8618 47.04C90.1498 47.6853 92.0271 48.5947 93.4938 49.768C95.2538 51.2933 96.6031 53.0827 97.5418 55.136C98.5391 57.1307 99.0378 59.3307 99.0378 61.736C99.0378 62.4987 98.9791 63.6427 98.8618 65.168C98.7445 66.8107 98.6858 68.2187 98.6858 69.392C98.6858 69.92 98.6271 70.712 98.5098 71.768C98.3925 73.0587 98.3338 74.0853 98.3338 74.848C98.3338 75.552 98.5978 76.168 99.1258 76.696C99.6538 77.1653 100.27 77.4 100.974 77.4L103.438 77.312C104.083 77.312 104.582 77.5467 104.934 78.016C105.286 78.4853 105.462 79.072 105.462 79.776ZM77.1258 77.488C79.6485 77.488 81.7605 77.224 83.4618 76.696C85.1631 76.168 87.2165 75.2 89.6218 73.792C89.8565 72.7947 90.0031 71.4747 90.0618 69.832C86.8351 68.3067 84.1658 67.544 82.0538 67.544C79.6485 67.544 77.5071 67.984 75.6298 68.864C73.7525 69.744 72.8138 71.2987 72.8138 73.528C72.8138 74.6427 73.2831 75.5813 74.2218 76.344C75.1605 77.1067 76.1285 77.488 77.1258 77.488ZM110.883 53.552C110.061 53.4347 109.387 53.0827 108.859 52.496C108.389 51.9093 108.155 51.2053 108.155 50.384C108.155 49.9733 108.243 49.5333 108.419 49.064C108.653 48.5947 108.976 48.184 109.387 47.832C110.149 47.0693 112.203 46.688 115.547 46.688C116.016 44.4 116.251 42.0827 116.251 39.736C116.251 38.856 116.221 38.0933 116.163 37.448C116.104 36.8027 116.075 36.304 116.075 35.952C116.075 34.6613 116.544 33.6933 117.483 33.048C118.48 32.4027 119.595 32.08 120.827 32.08C122.352 32.08 123.379 32.4613 123.907 33.224C124.493 33.9867 124.787 35.3947 124.787 37.448C124.787 40.4987 124.523 43.4907 123.995 46.424C124.933 46.424 126.224 46.3653 127.867 46.248C130.096 46.1307 131.709 46.072 132.707 46.072C133.704 46.072 134.555 46.336 135.259 46.864C136.021 47.3333 136.403 48.008 136.403 48.888C136.403 51.176 135.376 52.5253 133.323 52.936C131.152 53.464 127.779 53.7867 123.203 53.904C123.027 56.192 122.939 58.6853 122.939 61.384C122.939 65.608 123.203 69.0693 123.731 71.768C124.083 73.6453 124.669 75.024 125.491 75.904C126.371 76.7253 127.661 77.136 129.363 77.136C130.36 77.136 131.387 76.872 132.443 76.344C133.147 75.9333 133.792 75.728 134.379 75.728C135.2 75.728 135.787 75.992 136.139 76.52C136.549 77.048 136.755 77.752 136.755 78.632C136.755 80.2747 135.875 81.6533 134.115 82.768C132.355 83.824 130.096 84.352 127.339 84.352C125.637 84.352 123.907 83.9413 122.147 83.12C120.445 82.2987 119.008 81.272 117.835 80.04C117.659 79.864 117.336 79.1893 116.867 78.016C116.397 76.8427 115.987 75.5813 115.635 74.232C115.048 71.4747 114.755 67.6027 114.755 62.616C114.755 60.4453 114.872 57.5413 115.107 53.904L110.883 53.552ZM178.641 55.752C179.11 56.5733 179.491 57.776 179.785 59.36C180.078 60.8853 180.225 62.264 180.225 63.496C180.225 65.08 180.049 66.84 179.697 68.776C179.345 70.712 179.022 72.208 178.729 73.264C174.681 80.656 168.697 84.352 160.777 84.352C157.843 84.352 154.851 83.384 151.801 81.448C148.75 79.512 146.638 77.2827 145.465 74.76C143.881 69.7733 143.089 66.576 143.089 65.168C143.089 62.8213 143.587 60.328 144.585 57.688C145.641 55.048 146.961 52.76 148.545 50.824C149.601 49.4747 151.419 48.3307 154.001 47.392C156.582 46.3947 158.929 45.896 161.041 45.896C165.147 45.896 168.609 46.688 171.425 48.272C174.299 49.7973 176.705 52.2907 178.641 55.752ZM170.985 69.92C171.278 69.3333 171.425 67.368 171.425 64.024C171.425 62.3227 171.102 60.6507 170.457 59.008C169.87 57.3653 168.99 55.9573 167.817 54.784C167.699 54.6667 167.377 54.4907 166.849 54.256C166.321 53.9627 165.587 53.6987 164.649 53.464C163.769 53.1707 162.742 53.024 161.569 53.024C158.283 53.024 155.878 54.344 154.353 56.984C152.827 59.624 152.065 62.616 152.065 65.96C152.065 66.488 152.241 67.5733 152.593 69.216C152.945 70.8587 153.209 71.9147 153.385 72.384C153.854 73.2053 154.793 74.1733 156.201 75.288C157.667 76.344 159.251 76.872 160.953 76.872C163.593 76.872 165.675 76.256 167.201 75.024C168.785 73.7333 170.046 72.032 170.985 69.92Z" fill="black"/>
<path d="M40.744 138.256C45.0267 138.784 48.1947 140.163 50.248 142.392C52.36 144.563 53.416 147.261 53.416 150.488C53.416 153.715 52.2133 156.765 49.808 159.64C47.4613 162.515 44.44 164.744 40.744 166.328C39.1013 166.973 36.9307 167.443 34.232 167.736C31.592 168.029 28.864 168.176 26.048 168.176C21.3547 168.176 16.544 167.736 11.616 166.856C10.736 166.68 9.79733 166.24 8.8 165.536C7.86133 164.832 7.392 163.805 7.392 162.456C7.33333 157.059 7.128 149.549 6.776 139.928L6.688 135.088C6.45333 127.579 6.336 121.683 6.336 117.4C6.336 116.637 6.776 115.757 7.656 114.76C8.59467 113.704 9.70933 113.117 11 113C11.7627 113 12.496 112.971 13.2 112.912C19.8293 112.267 24.2587 111.944 26.488 111.944C30.888 111.944 34.76 112.384 38.104 113.264C41.5067 114.085 44.3227 115.611 46.552 117.84C47.3733 118.779 48.048 119.981 48.576 121.448C49.104 122.856 49.368 124.235 49.368 125.584C49.4267 128.459 48.664 131.099 47.08 133.504C45.5547 135.909 43.4427 137.493 40.744 138.256ZM27.016 119.424C25.0213 119.424 22.9387 119.541 20.768 119.776C18.656 120.011 16.8667 120.304 15.4 120.656L15.928 137.288L19.096 137.2C24.2 136.672 27.9547 136.232 30.36 135.88C31.8853 135.528 33.3813 134.853 34.848 133.856C36.3147 132.8 37.5173 131.715 38.456 130.6C39.4533 129.427 39.952 128.547 39.952 127.96C39.952 127.08 39.776 126.2 39.424 125.32C39.072 124.381 38.6907 123.707 38.28 123.296C36.696 121.771 35.0827 120.744 33.44 120.216C31.7973 119.688 29.656 119.424 27.016 119.424ZM16.192 160.432C19.184 160.843 22.0293 161.048 24.728 161.048C30.6533 161.048 35.3173 160.285 38.72 158.76C42.1813 157.176 43.912 154.184 43.912 149.784C43.912 148.024 42.592 146.557 39.952 145.384C37.312 144.211 34.4667 143.624 31.416 143.624C29.3627 143.624 26.752 143.859 23.584 144.328C21.0613 144.68 18.5973 144.915 16.192 145.032C16.3093 148.552 16.368 150.781 16.368 151.72C16.368 153.539 16.3387 154.917 16.28 155.856L16.192 160.432ZM101.595 163.776C101.595 165.067 100.891 166.152 99.4826 167.032C98.1333 167.912 96.872 168.352 95.6986 168.352C93.4693 168.352 91.68 168.088 90.3306 167.56C89.04 166.973 87.8373 165.917 86.7226 164.392C85.1973 165.741 83.1146 166.768 80.4746 167.472C77.8346 168.117 75.4 168.44 73.1706 168.44C69.5333 168.44 66.5413 167.472 64.1946 165.536C61.848 163.541 60.6746 160.637 60.6746 156.824C60.6746 155.181 61.1146 153.685 61.9946 152.336C62.8746 150.928 64.0773 149.696 65.6026 148.64C67.304 147.525 69.24 146.675 71.4106 146.088C73.5813 145.443 75.84 145.12 78.1866 145.12C79.4186 145.12 80.8853 145.355 82.5866 145.824C84.288 146.293 85.608 146.792 86.5466 147.32V145.912C86.5466 142.744 85.784 140.573 84.2586 139.4C82.7333 138.168 80.2693 137.552 76.8666 137.552C75.8693 137.552 74.872 137.757 73.8746 138.168C72.936 138.579 71.8506 139.136 70.6186 139.84C68.976 140.72 67.4213 141.16 65.9546 141.16C65.4266 141.16 64.928 140.808 64.4586 140.104C63.9893 139.341 63.7546 138.667 63.7546 138.08C63.7546 136.379 64.5466 134.912 66.1306 133.68C67.7733 132.448 69.7093 131.539 71.9386 130.952C74.168 130.307 76.1626 129.984 77.9226 129.984C79.6826 129.984 81.7066 130.336 83.9946 131.04C86.2826 131.685 88.16 132.595 89.6266 133.768C91.3866 135.293 92.736 137.083 93.6746 139.136C94.672 141.131 95.1706 143.331 95.1706 145.736C95.1706 146.499 95.112 147.643 94.9946 149.168C94.8773 150.811 94.8186 152.219 94.8186 153.392C94.8186 153.92 94.76 154.712 94.6426 155.768C94.5253 157.059 94.4666 158.085 94.4666 158.848C94.4666 159.552 94.7306 160.168 95.2586 160.696C95.7866 161.165 96.4026 161.4 97.1066 161.4L99.5706 161.312C100.216 161.312 100.715 161.547 101.067 162.016C101.419 162.485 101.595 163.072 101.595 163.776ZM73.2586 161.488C75.7813 161.488 77.8933 161.224 79.5946 160.696C81.296 160.168 83.3493 159.2 85.7546 157.792C85.9893 156.795 86.136 155.475 86.1946 153.832C82.968 152.307 80.2986 151.544 78.1866 151.544C75.7813 151.544 73.64 151.984 71.7626 152.864C69.8853 153.744 68.9466 155.299 68.9466 157.528C68.9466 158.643 69.416 159.581 70.3546 160.344C71.2933 161.107 72.2613 161.488 73.2586 161.488ZM109.557 152.16C109.557 148.875 109.587 146.381 109.645 144.68L109.733 136.32C109.733 132.917 109.645 129.192 109.469 125.144C109.411 123.912 109.205 122.211 108.853 120.04C108.384 116.755 108.149 114.291 108.149 112.648C108.149 109.949 109.499 108.6 112.197 108.6C113.899 108.6 115.101 109.069 115.805 110.008C116.568 110.888 117.096 112.296 117.389 114.232C117.976 118.28 118.269 123.032 118.269 128.488C118.269 130.131 118.211 132.595 118.093 135.88C119.208 134.12 120.645 132.741 122.405 131.744C124.224 130.747 126.013 130.248 127.773 130.248C132.877 130.248 137.277 132.36 140.973 136.584C141.971 138.051 142.851 139.811 143.613 141.864C144.435 143.859 144.845 145.589 144.845 147.056C144.845 149.637 144.552 152.013 143.965 154.184C143.437 156.355 142.469 158.467 141.061 160.52C139.653 162.573 137.864 164.245 135.693 165.536C133.581 166.827 131.117 167.472 128.301 167.472C125.837 167.472 123.608 166.973 121.613 165.976C119.677 164.979 118.123 163.659 116.949 162.016C116.656 163.483 116.011 164.949 115.013 166.416C114.016 167.824 112.872 168.528 111.581 168.528C110.525 168.528 109.645 168.264 108.941 167.736C108.237 167.149 107.885 166.299 107.885 165.184C107.885 164.363 108.061 163.336 108.413 162.104C108.765 160.403 109.029 158.848 109.205 157.44C109.44 155.973 109.557 154.213 109.557 152.16ZM126.101 160.168C128.976 160.168 131.381 159.171 133.317 157.176C135.253 155.123 136.221 152.365 136.221 148.904C136.221 145.736 135.371 143.008 133.669 140.72C133.083 139.957 132.232 139.341 131.117 138.872C130.061 138.403 129.005 138.168 127.949 138.168C125.485 138.168 123.403 138.901 121.701 140.368C120 141.776 119.032 143.741 118.797 146.264C118.563 149.667 118.445 152.6 118.445 155.064C119.149 156.413 120.205 157.616 121.613 158.672C123.08 159.669 124.576 160.168 126.101 160.168ZM186.604 168.352C184.609 168.352 183.084 168.059 182.028 167.472C180.972 166.827 179.828 165.653 178.596 163.952C177.071 165.301 174.783 166.387 171.732 167.208C168.74 168.029 166.159 168.44 163.988 168.44C160.409 168.44 157.505 167.472 155.276 165.536C153.105 163.541 152.02 160.637 152.02 156.824C152.02 155.181 152.46 153.685 153.34 152.336C154.279 150.928 155.481 149.696 156.948 148.64C158.591 147.525 160.527 146.645 162.756 146C165.044 145.355 167.127 145.032 169.004 145.032C172.172 145.032 174.988 145.325 177.452 145.912V145.824C177.452 142.656 176.66 140.485 175.076 139.312C173.551 138.08 171.087 137.464 167.684 137.464C165.513 137.464 163.636 138.432 162.052 140.368C161.465 141.131 160.233 141.512 158.356 141.512C157.417 141.512 156.713 141.131 156.244 140.368C155.833 139.547 155.628 138.725 155.628 137.904C155.628 136.203 156.332 134.736 157.74 133.504C159.207 132.272 160.967 131.363 163.02 130.776C165.073 130.131 166.98 129.808 168.74 129.808C170.441 129.808 172.465 130.16 174.812 130.864C177.159 131.568 179.065 132.507 180.532 133.68C182.292 135.205 183.641 136.995 184.58 139.048C185.577 141.043 186.076 143.243 186.076 145.648C186.076 146.411 186.017 147.555 185.9 149.08C185.783 150.84 185.724 152.277 185.724 153.392C185.724 153.92 185.665 154.595 185.548 155.416C185.431 156.472 185.372 157.352 185.372 158.056C185.372 158.819 185.607 159.552 186.076 160.256C186.545 160.96 187.191 161.547 188.012 162.016C188.775 162.427 189.273 162.867 189.508 163.336C189.743 163.805 189.86 164.333 189.86 164.92C189.86 165.507 189.479 166.24 188.716 167.12C188.012 167.941 187.308 168.352 186.604 168.352ZM169.004 151.544C166.716 151.544 164.692 151.984 162.932 152.864C161.172 153.744 160.292 155.299 160.292 157.528C160.292 158.643 160.673 159.581 161.436 160.344C162.257 161.107 163.137 161.488 164.076 161.488C166.599 161.488 168.711 161.224 170.412 160.696C172.113 160.168 174.167 159.2 176.572 157.792C176.865 156.853 177.041 155.533 177.1 153.832C177.1 153.187 177.129 152.688 177.188 152.336C174.02 151.808 171.292 151.544 169.004 151.544ZM206.333 154.36C206.333 156.589 206.655 158.32 207.301 159.552C208.005 160.725 208.885 161.312 209.941 161.312C210.527 161.312 211.085 161.283 211.613 161.224C212.141 161.107 212.669 161.048 213.197 161.048C213.783 161.048 214.282 161.341 214.693 161.928C215.162 162.515 215.397 163.16 215.397 163.864C215.397 165.272 214.722 166.387 213.373 167.208C212.082 167.971 210.322 168.352 208.093 168.352C206.509 168.352 204.895 167.883 203.253 166.944C201.669 165.947 200.349 164.421 199.293 162.368C198.237 160.256 197.709 157.645 197.709 154.536C197.709 147.848 197.826 142.187 198.061 137.552C198.354 132.037 198.501 125.085 198.501 116.696C198.501 114.056 198.647 112.208 198.941 111.152C199.293 110.331 199.85 109.715 200.613 109.304C201.434 108.835 202.285 108.6 203.165 108.6C204.045 108.6 204.807 108.747 205.453 109.04C206.157 109.333 206.626 109.803 206.861 110.448C207.095 111.152 207.242 111.856 207.301 112.56C207.418 113.205 207.477 114.144 207.477 115.376C207.477 117.781 207.389 120.099 207.213 122.328C207.095 125.027 207.037 126.992 207.037 128.224C206.567 138.549 206.333 147.261 206.333 154.36ZM220.43 138.344C219.961 138.344 219.55 138.168 219.198 137.816C218.846 137.405 218.67 136.936 218.67 136.408C218.67 134.707 219.228 133.416 220.342 132.536C221.457 131.597 222.836 131.128 224.478 131.128C226.766 131.128 228.732 131.744 230.374 132.976C232.076 134.149 232.926 135.851 232.926 138.08C232.926 138.667 232.809 140.896 232.574 144.768C232.34 149.227 232.222 152.189 232.222 153.656C232.222 155.709 232.604 157.381 233.366 158.672C234.188 159.904 235.449 160.52 237.15 160.52C240.436 160.52 242.958 158.701 244.718 155.064C246.537 151.368 247.74 146.851 248.326 141.512C248.561 139.165 248.913 136.701 249.382 134.12C249.617 132.712 249.94 131.685 250.35 131.04C250.761 130.395 251.553 130.072 252.726 130.072C253.489 130.072 254.369 130.248 255.366 130.6C256.422 130.952 257.097 131.421 257.39 132.008C257.742 132.888 257.918 133.856 257.918 134.912C257.918 136.379 257.713 138.285 257.302 140.632C256.833 142.979 256.51 145.531 256.334 148.288C256.217 150.752 256.598 153.333 257.478 156.032C258.358 158.731 259.62 160.491 261.262 161.312C263.14 162.251 264.078 163.101 264.078 163.864C264.078 165.096 263.638 166.064 262.758 166.768C261.878 167.472 261.028 167.824 260.206 167.824C258.036 167.824 256.07 167.032 254.31 165.448C252.609 163.864 251.377 161.899 250.614 159.552C249.382 161.429 248.18 162.984 247.006 164.216C245.892 165.389 244.454 166.387 242.694 167.208C240.934 167.971 238.764 168.352 236.182 168.352C233.132 168.352 230.345 167.267 227.822 165.096C225.358 162.925 224.126 159.2 224.126 153.92C224.126 152.453 224.156 150.899 224.214 149.256C224.332 147.613 224.39 146.44 224.39 145.736C224.566 143.624 224.654 141.688 224.654 139.928C224.654 139.4 224.449 138.96 224.038 138.608C223.686 138.256 223.276 138.08 222.806 138.08C222.454 138.08 222.044 138.139 221.574 138.256C221.164 138.315 220.782 138.344 220.43 138.344Z" fill="black"/>
</svg>
